STARTFONT 2.3
FONT -FontForge-Zen Loop-Book-R-Normal--9-90-72-72-P-29-ISO10646-1
SIZE 9 72 72  4
FONTBOUNDINGBOX 8 12 -1 -3
COMMENT "Generated by fontforge, http://fontforge.sourceforge.net"
COMMENT "Copyright 2021 The Zen-Loop Project Authors (https://github.com/googlefonts/zen-loop)"
STARTPROPERTIES 40
FOUNDRY "FontForge"
FAMILY_NAME "Zen Loop"
WEIGHT_NAME "Book"
SLANT "R"
SETWIDTH_NAME "Normal"
ADD_STYLE_NAME ""
PIXEL_SIZE 9
POINT_SIZE 90
RESOLUTION_X 72
RESOLUTION_Y 72
SPACING "P"
AVERAGE_WIDTH 29
CHARSET_REGISTRY "ISO10646"
CHARSET_ENCODING "1"
FONTNAME_REGISTRY ""
CHARSET_COLLECTIONS "ISO10646-1"
BITS_PER_PIXEL 4
FONT_NAME "ZenLoop-Regular"
FACE_NAME "Zen Loop Regular"
COPYRIGHT "Copyright 2021 The Zen-Loop Project Authors (https://github.com/googlefonts/zen-loop)"
FONT_VERSION "1.000; ttfautohint (v1.8.3)"
FONT_ASCENT 7
FONT_DESCENT 2
UNDERLINE_POSITION -1
UNDERLINE_THICKNESS 1
X_HEIGHT 4
CAP_HEIGHT 6
RAW_ASCENT 800
RAW_DESCENT 200
NORM_SPACE 2
RELATIVE_WEIGHT 40
RELATIVE_SETWIDTH 50
SUPERSCRIPT_X 0
SUPERSCRIPT_Y 3
SUPERSCRIPT_SIZE 5
SUBSCRIPT_X 0
SUBSCRIPT_Y 0
SUBSCRIPT_SIZE 5
AVG_LOWERCASE_WIDTH 27
AVG_UPPERCASE_WIDTH 34
ENDPROPERTIES
CHARS 248
STARTCHAR CR
ENCODING 13
SWIDTH 600 0
DWIDTH 5 0
BBX 1 1 0 0
BITMAP
00
ENDCHAR
STARTCHAR space
ENCODING 32
SWIDTH 240 0
DWIDTH 2 0
BBX 1 1 0 0
BITMAP
00
ENDCHAR
STARTCHAR exclam
ENCODING 33
SWIDTH 141 0
DWIDTH 1 0
BBX 1 7 0 0
BITMAP
30
30
30
30
30
00
30
ENDCHAR
STARTCHAR quotedbl
ENCODING 34
SWIDTH 195 0
DWIDTH 2 0
BBX 2 2 0 5
BITMAP
33
33
ENDCHAR
STARTCHAR numbersign
ENCODING 35
SWIDTH 454 0
DWIDTH 4 0
BBX 4 7 0 0
BITMAP
0303
0303
1653
0330
3552
2130
3030
ENDCHAR
STARTCHAR dollar
ENCODING 36
SWIDTH 356 0
DWIDTH 3 0
BBX 3 9 0 -1
BITMAP
0300
2630
3300
3300
0610
0330
2330
3540
0300
ENDCHAR
STARTCHAR percent
ENCODING 37
SWIDTH 470 0
DWIDTH 4 0
BBX 4 7 0 0
BITMAP
3400
3212
2330
0052
0233
0333
1233
ENDCHAR
STARTCHAR ampersand
ENCODING 38
SWIDTH 520 0
DWIDTH 5 0
BBX 5 7 0 0
BITMAP
034000
033000
033000
051310
304200
305000
332310
ENDCHAR
STARTCHAR quotesingle
ENCODING 39
SWIDTH 121 0
DWIDTH 1 0
BBX 1 2 0 5
BITMAP
30
30
ENDCHAR
STARTCHAR parenleft
ENCODING 40
SWIDTH 233 0
DWIDTH 2 0
BBX 2 8 0 -1
BITMAP
01
03
21
30
30
30
12
03
ENDCHAR
STARTCHAR parenright
ENCODING 41
SWIDTH 233 0
DWIDTH 2 0
BBX 2 8 0 -1
BITMAP
30
21
03
03
03
12
30
10
ENDCHAR
STARTCHAR asterisk
ENCODING 42
SWIDTH 313 0
DWIDTH 3 0
BBX 3 3 0 4
BITMAP
0300
2810
1200
ENDCHAR
STARTCHAR plus
ENCODING 43
SWIDTH 577 0
DWIDTH 5 0
BBX 5 5 0 0
BITMAP
003000
003000
246420
003000
003000
ENDCHAR
STARTCHAR comma
ENCODING 44
SWIDTH 145 0
DWIDTH 1 0
BBX 1 2 0 -2
BITMAP
30
30
ENDCHAR
STARTCHAR hyphen
ENCODING 45
SWIDTH 286 0
DWIDTH 3 0
BBX 3 1 0 3
BITMAP
2310
ENDCHAR
STARTCHAR period
ENCODING 46
SWIDTH 181 0
DWIDTH 2 0
BBX 1 1 0 0
BITMAP
30
ENDCHAR
STARTCHAR slash
ENCODING 47
SWIDTH 292 0
DWIDTH 3 0
BBX 3 9 0 -1
BITMAP
0010
0030
0210
0300
0300
1200
3000
3000
3000
ENDCHAR
STARTCHAR zero
ENCODING 48
SWIDTH 378 0
DWIDTH 3 0
BBX 3 7 0 0
BITMAP
1330
3030
3030
3030
3030
3030
1330
ENDCHAR
STARTCHAR one
ENCODING 49
SWIDTH 303 0
DWIDTH 3 0
BBX 3 7 0 0
BITMAP
2400
0300
0300
0300
0300
0300
2520
ENDCHAR
STARTCHAR two
ENCODING 50
SWIDTH 343 0
DWIDTH 3 0
BBX 3 7 0 0
BITMAP
3430
0030
0030
0120
0400
3000
5330
ENDCHAR
STARTCHAR three
ENCODING 51
SWIDTH 377 0
DWIDTH 3 0
BBX 3 7 0 0
BITMAP
2330
0030
0450
1340
0030
0030
2330
ENDCHAR
STARTCHAR four
ENCODING 52
SWIDTH 389 0
DWIDTH 4 0
BBX 3 7 0 0
BITMAP
0120
0300
0330
3030
3350
0030
0030
ENDCHAR
STARTCHAR five
ENCODING 53
SWIDTH 372 0
DWIDTH 3 0
BBX 3 8 0 0
BITMAP
0010
1420
1200
2520
5130
3030
0030
2330
ENDCHAR
STARTCHAR six
ENCODING 54
SWIDTH 360 0
DWIDTH 3 0
BBX 3 7 0 0
BITMAP
0310
0300
3000
3320
3030
3030
2330
ENDCHAR
STARTCHAR seven
ENCODING 55
SWIDTH 321 0
DWIDTH 3 0
BBX 3 7 0 0
BITMAP
2340
0120
0300
0300
0300
2100
3000
ENDCHAR
STARTCHAR eight
ENCODING 56
SWIDTH 377 0
DWIDTH 3 0
BBX 3 7 0 0
BITMAP
2330
3030
2130
0620
4040
3030
2330
ENDCHAR
STARTCHAR nine
ENCODING 57
SWIDTH 360 0
DWIDTH 3 0
BBX 3 7 0 -1
BITMAP
2330
3030
3030
1340
0030
0120
0400
ENDCHAR
STARTCHAR colon
ENCODING 58
SWIDTH 181 0
DWIDTH 2 0
BBX 1 4 0 0
BITMAP
30
00
00
30
ENDCHAR
STARTCHAR semicolon
ENCODING 59
SWIDTH 165 0
DWIDTH 1 0
BBX 1 6 0 -2
BITMAP
30
00
00
00
30
30
ENDCHAR
STARTCHAR less
ENCODING 60
SWIDTH 482 0
DWIDTH 4 0
BBX 4 4 0 0
BITMAP
0023
2310
1330
0013
ENDCHAR
STARTCHAR equal
ENCODING 61
SWIDTH 577 0
DWIDTH 5 0
BBX 5 3 0 1
BITMAP
233320
000000
233320
ENDCHAR
STARTCHAR greater
ENCODING 62
SWIDTH 482 0
DWIDTH 4 0
BBX 4 4 0 0
BITMAP
2200
0232
0033
2300
ENDCHAR
STARTCHAR question
ENCODING 63
SWIDTH 300 0
DWIDTH 3 0
BBX 3 7 0 0
BITMAP
3400
0120
0300
0300
1200
0000
0300
ENDCHAR
STARTCHAR at
ENCODING 64
SWIDTH 748 0
DWIDTH 7 0
BBX 7 7 0 0
BITMAP
03465200
22223310
30301030
30330030
30360410
22343300
02333200
ENDCHAR
STARTCHAR A
ENCODING 65
SWIDTH 414 0
DWIDTH 4 0
BBX 4 7 0 0
BITMAP
0410
0330
0430
1340
4460
4003
3003
ENDCHAR
STARTCHAR B
ENCODING 66
SWIDTH 375 0
DWIDTH 3 0
BBX 3 7 0 0
BITMAP
4330
3030
3440
3350
3030
3030
4330
ENDCHAR
STARTCHAR C
ENCODING 67
SWIDTH 366 0
DWIDTH 3 0
BBX 3 7 0 0
BITMAP
1430
3000
3000
3000
3000
3000
1430
ENDCHAR
STARTCHAR D
ENCODING 68
SWIDTH 396 0
DWIDTH 4 0
BBX 4 7 0 0
BITMAP
4330
3030
3012
3003
3012
3030
4330
ENDCHAR
STARTCHAR E
ENCODING 69
SWIDTH 309 0
DWIDTH 3 0
BBX 3 7 0 0
BITMAP
4310
3000
3000
4310
3000
3000
4310
ENDCHAR
STARTCHAR F
ENCODING 70
SWIDTH 299 0
DWIDTH 3 0
BBX 3 7 0 0
BITMAP
4310
3000
3000
4310
3000
3000
3000
ENDCHAR
STARTCHAR G
ENCODING 71
SWIDTH 382 0
DWIDTH 3 0
BBX 4 7 0 0
BITMAP
1430
3000
3000
3031
3021
3021
1440
ENDCHAR
STARTCHAR H
ENCODING 72
SWIDTH 425 0
DWIDTH 4 0
BBX 4 7 0 0
BITMAP
3003
3003
3003
4333
3003
3003
3003
ENDCHAR
STARTCHAR I
ENCODING 73
SWIDTH 141 0
DWIDTH 1 0
BBX 1 7 0 0
BITMAP
30
30
30
30
30
30
30
ENDCHAR
STARTCHAR J
ENCODING 74
SWIDTH 142 0
DWIDTH 1 0
BBX 2 9 -1 -2
BITMAP
03
03
03
03
03
03
03
03
23
ENDCHAR
STARTCHAR K
ENCODING 75
SWIDTH 401 0
DWIDTH 4 0
BBX 4 7 0 0
BITMAP
3031
3030
5610
6240
3030
3020
3002
ENDCHAR
STARTCHAR L
ENCODING 76
SWIDTH 347 0
DWIDTH 3 0
BBX 3 7 0 0
BITMAP
3000
3000
3000
3000
3000
3000
4330
ENDCHAR
STARTCHAR M
ENCODING 77
SWIDTH 534 0
DWIDTH 5 0
BBX 5 7 0 0
BITMAP
340600
316210
306120
306030
306030
302030
300030
ENDCHAR
STARTCHAR N
ENCODING 78
SWIDTH 422 0
DWIDTH 4 0
BBX 4 7 0 0
BITMAP
5003
3303
3303
3213
3033
3033
3013
ENDCHAR
STARTCHAR O
ENCODING 79
SWIDTH 446 0
DWIDTH 4 0
BBX 4 7 0 0
BITMAP
1441
3003
3003
3003
3003
3003
1431
ENDCHAR
STARTCHAR P
ENCODING 80
SWIDTH 341 0
DWIDTH 3 0
BBX 3 7 0 0
BITMAP
4330
3040
3030
4310
3000
3000
3000
ENDCHAR
STARTCHAR Q
ENCODING 81
SWIDTH 446 0
DWIDTH 4 0
BBX 4 10 0 -3
BITMAP
1431
3003
3003
3003
5105
3343
1761
0330
0230
0230
ENDCHAR
STARTCHAR R
ENCODING 82
SWIDTH 380 0
DWIDTH 3 0
BBX 4 7 0 0
BITMAP
4330
3030
6340
6430
3030
3030
3012
ENDCHAR
STARTCHAR S
ENCODING 83
SWIDTH 356 0
DWIDTH 3 0
BBX 3 7 0 0
BITMAP
2330
3000
3100
0410
0030
1030
3340
ENDCHAR
STARTCHAR T
ENCODING 84
SWIDTH 377 0
DWIDTH 3 0
BBX 4 7 0 0
BITMAP
3531
0300
0300
0300
0300
0300
0300
ENDCHAR
STARTCHAR U
ENCODING 85
SWIDTH 412 0
DWIDTH 4 0
BBX 4 7 0 0
BITMAP
3003
3003
3003
3003
3003
3003
2341
ENDCHAR
STARTCHAR V
ENCODING 86
SWIDTH 384 0
DWIDTH 3 0
BBX 4 7 0 0
BITMAP
3003
3020
3030
2130
0330
0420
0500
ENDCHAR
STARTCHAR W
ENCODING 87
SWIDTH 534 0
DWIDTH 5 0
BBX 5 7 0 0
BITMAP
300030
300030
305030
306030
305120
323310
330500
ENDCHAR
STARTCHAR X
ENCODING 88
SWIDTH 318 0
DWIDTH 3 0
BBX 3 7 0 0
BITMAP
3030
3120
0600
0500
1400
3030
3030
ENDCHAR
STARTCHAR Y
ENCODING 89
SWIDTH 370 0
DWIDTH 3 0
BBX 4 7 0 0
BITMAP
3021
3030
1330
0500
0300
0300
0300
ENDCHAR
STARTCHAR Z
ENCODING 90
SWIDTH 309 0
DWIDTH 3 0
BBX 3 7 0 0
BITMAP
2340
0110
0300
0300
1100
3000
5320
ENDCHAR
STARTCHAR bracketleft
ENCODING 91
SWIDTH 193 0
DWIDTH 2 0
BBX 2 9 0 -1
BITMAP
32
30
30
30
30
30
30
30
32
ENDCHAR
STARTCHAR backslash
ENCODING 92
SWIDTH 292 0
DWIDTH 3 0
BBX 3 9 0 -1
BITMAP
1000
3000
3000
2100
0300
0300
0300
0120
0030
ENDCHAR
STARTCHAR bracketright
ENCODING 93
SWIDTH 193 0
DWIDTH 2 0
BBX 2 9 0 -1
BITMAP
32
03
03
03
03
03
03
03
32
ENDCHAR
STARTCHAR asciicircum
ENCODING 94
SWIDTH 416 0
DWIDTH 4 0
BBX 4 4 0 3
BITMAP
0420
0330
3121
3003
ENDCHAR
STARTCHAR underscore
ENCODING 95
SWIDTH 556 0
DWIDTH 5 0
BBX 5 1 0 -1
BITMAP
233320
ENDCHAR
STARTCHAR grave
ENCODING 96
SWIDTH 201 0
DWIDTH 2 0
BBX 2 1 0 6
BITMAP
21
ENDCHAR
STARTCHAR a
ENCODING 97
SWIDTH 315 0
DWIDTH 3 0
BBX 3 5 0 0
BITMAP
2510
0120
1420
3120
4430
ENDCHAR
STARTCHAR b
ENCODING 98
SWIDTH 298 0
DWIDTH 3 0
BBX 3 7 0 0
BITMAP
3000
3000
4400
3030
3030
3030
4400
ENDCHAR
STARTCHAR c
ENCODING 99
SWIDTH 275 0
DWIDTH 2 0
BBX 3 5 0 0
BITMAP
2410
3000
3000
3000
2410
ENDCHAR
STARTCHAR d
ENCODING 100
SWIDTH 298 0
DWIDTH 3 0
BBX 3 7 0 0
BITMAP
0120
0120
2420
3120
3120
3120
2420
ENDCHAR
STARTCHAR e
ENCODING 101
SWIDTH 285 0
DWIDTH 3 0
BBX 3 5 0 0
BITMAP
2400
4020
4320
3000
2410
ENDCHAR
STARTCHAR f
ENCODING 102
SWIDTH 178 0
DWIDTH 2 0
BBX 2 7 0 0
BITMAP
23
30
52
30
30
30
30
ENDCHAR
STARTCHAR g
ENCODING 103
SWIDTH 302 0
DWIDTH 3 0
BBX 3 8 0 -2
BITMAP
0110
3510
3030
3030
3400
3300
3040
4330
ENDCHAR
STARTCHAR h
ENCODING 104
SWIDTH 307 0
DWIDTH 3 0
BBX 3 7 0 0
BITMAP
3000
3000
4420
3030
3030
3030
3030
ENDCHAR
STARTCHAR i
ENCODING 105
SWIDTH 141 0
DWIDTH 1 0
BBX 1 7 0 0
BITMAP
30
00
30
30
30
30
30
ENDCHAR
STARTCHAR j
ENCODING 106
SWIDTH 141 0
DWIDTH 1 0
BBX 2 9 -1 -2
BITMAP
03
00
03
03
03
03
03
03
23
ENDCHAR
STARTCHAR k
ENCODING 107
SWIDTH 287 0
DWIDTH 3 0
BBX 3 7 0 0
BITMAP
3000
3000
3010
3300
4400
3300
3030
ENDCHAR
STARTCHAR l
ENCODING 108
SWIDTH 141 0
DWIDTH 1 0
BBX 1 7 0 0
BITMAP
30
30
30
30
30
30
30
ENDCHAR
STARTCHAR m
ENCODING 109
SWIDTH 407 0
DWIDTH 4 0
BBX 4 5 0 0
BITMAP
4243
3413
3323
3213
3003
ENDCHAR
STARTCHAR n
ENCODING 110
SWIDTH 307 0
DWIDTH 3 0
BBX 3 5 0 0
BITMAP
4420
3030
3030
3030
3030
ENDCHAR
STARTCHAR o
ENCODING 111
SWIDTH 309 0
DWIDTH 3 0
BBX 3 5 0 0
BITMAP
2410
3030
3030
3030
2410
ENDCHAR
STARTCHAR p
ENCODING 112
SWIDTH 299 0
DWIDTH 3 0
BBX 3 8 0 -2
BITMAP
1000
5410
3030
3030
3030
4400
3000
3000
ENDCHAR
STARTCHAR q
ENCODING 113
SWIDTH 286 0
DWIDTH 3 0
BBX 3 7 0 -2
BITMAP
2420
3120
3120
3120
2420
0120
0030
ENDCHAR
STARTCHAR r
ENCODING 114
SWIDTH 277 0
DWIDTH 3 0
BBX 3 5 0 0
BITMAP
4420
3010
3000
3000
3000
ENDCHAR
STARTCHAR s
ENCODING 115
SWIDTH 257 0
DWIDTH 2 0
BBX 2 5 0 0
BITMAP
44
30
13
03
35
ENDCHAR
STARTCHAR t
ENCODING 116
SWIDTH 207 0
DWIDTH 2 0
BBX 2 7 0 0
BITMAP
10
30
52
30
30
30
22
ENDCHAR
STARTCHAR u
ENCODING 117
SWIDTH 307 0
DWIDTH 3 0
BBX 3 5 0 0
BITMAP
3030
3030
3030
3030
3330
ENDCHAR
STARTCHAR v
ENCODING 118
SWIDTH 285 0
DWIDTH 3 0
BBX 3 5 0 0
BITMAP
3030
3110
3300
2400
0500
ENDCHAR
STARTCHAR w
ENCODING 119
SWIDTH 396 0
DWIDTH 4 0
BBX 4 5 0 0
BITMAP
3003
3303
3422
3531
4260
ENDCHAR
STARTCHAR x
ENCODING 120
SWIDTH 244 0
DWIDTH 2 0
BBX 2 5 0 0
BITMAP
33
33
14
33
33
ENDCHAR
STARTCHAR y
ENCODING 121
SWIDTH 285 0
DWIDTH 3 0
BBX 3 7 0 -2
BITMAP
3030
3110
3300
2400
0500
0300
4100
ENDCHAR
STARTCHAR z
ENCODING 122
SWIDTH 233 0
DWIDTH 2 0
BBX 2 5 0 0
BITMAP
25
03
12
30
53
ENDCHAR
STARTCHAR braceleft
ENCODING 123
SWIDTH 306 0
DWIDTH 3 0
BBX 3 9 0 -1
BITMAP
0220
0300
0300
3500
3500
0300
0300
0300
0220
ENDCHAR
STARTCHAR bar
ENCODING 124
SWIDTH 141 0
DWIDTH 1 0
BBX 1 9 0 -1
BITMAP
10
30
30
30
30
30
30
30
30
ENDCHAR
STARTCHAR braceright
ENCODING 125
SWIDTH 306 0
DWIDTH 3 0
BBX 3 9 0 -1
BITMAP
3100
0300
0300
0620
0620
0300
0300
0300
3000
ENDCHAR
STARTCHAR asciitilde
ENCODING 126
SWIDTH 433 0
DWIDTH 4 0
BBX 4 2 0 2
BITMAP
2302
2041
ENDCHAR
STARTCHAR uni00A0
ENCODING 160
SWIDTH 240 0
DWIDTH 2 0
BBX 1 1 0 0
BITMAP
00
ENDCHAR
STARTCHAR exclamdown
ENCODING 161
SWIDTH 141 0
DWIDTH 1 0
BBX 1 7 0 -2
BITMAP
30
00
30
30
30
30
30
ENDCHAR
STARTCHAR cent
ENCODING 162
SWIDTH 275 0
DWIDTH 2 0
BBX 3 7 0 -1
BITMAP
0300
2700
3310
3300
3300
2610
0300
ENDCHAR
STARTCHAR sterling
ENCODING 163
SWIDTH 331 0
DWIDTH 3 0
BBX 3 7 0 0
BITMAP
3320
3000
3000
3510
0300
1200
6320
ENDCHAR
STARTCHAR currency
ENCODING 164
SWIDTH 506 0
DWIDTH 5 0
BBX 4 5 0 1
BITMAP
1000
1545
2003
1203
2444
ENDCHAR
STARTCHAR yen
ENCODING 165
SWIDTH 370 0
DWIDTH 3 0
BBX 4 7 0 0
BITMAP
3021
3030
1330
0500
2530
2530
0300
ENDCHAR
STARTCHAR brokenbar
ENCODING 166
SWIDTH 141 0
DWIDTH 1 0
BBX 1 9 0 -1
BITMAP
10
30
30
30
00
10
30
30
30
ENDCHAR
STARTCHAR section
ENCODING 167
SWIDTH 303 0
DWIDTH 3 0
BBX 3 10 0 -1
BITMAP
2310
3020
4000
3600
6F30
5340
2410
0120
1030
2310
ENDCHAR
STARTCHAR dieresis
ENCODING 168
SWIDTH 241 0
DWIDTH 2 0
BBX 2 1 0 6
BITMAP
33
ENDCHAR
STARTCHAR copyright
ENCODING 169
SWIDTH 772 0
DWIDTH 7 0
BBX 7 8 0 0
BITMAP
00444000
04141400
30300130
30300030
30300030
30300130
04141400
00444000
ENDCHAR
STARTCHAR ordfeminine
ENCODING 170
SWIDTH 231 0
DWIDTH 2 0
BBX 2 3 0 3
BITMAP
23
24
45
ENDCHAR
STARTCHAR guillemotleft
ENCODING 171
SWIDTH 403 0
DWIDTH 4 0
BBX 4 4 0 1
BITMAP
0431
3320
3320
0421
ENDCHAR
STARTCHAR logicalnot
ENCODING 172
SWIDTH 557 0
DWIDTH 5 0
BBX 5 2 0 2
BITMAP
233330
000030
ENDCHAR
STARTCHAR uni00AD
ENCODING 173
SWIDTH 286 0
DWIDTH 3 0
BBX 3 1 0 3
BITMAP
2310
ENDCHAR
STARTCHAR registered
ENCODING 174
SWIDTH 772 0
DWIDTH 7 0
BBX 7 8 0 0
BITMAP
00444000
04240400
30312130
30312030
30360030
30303130
04101400
00444000
ENDCHAR
STARTCHAR macron
ENCODING 175
SWIDTH 266 0
DWIDTH 2 0
BBX 2 1 0 6
BITMAP
13
ENDCHAR
STARTCHAR degree
ENCODING 176
SWIDTH 350 0
DWIDTH 3 0
BBX 3 3 0 4
BITMAP
1320
3030
1420
ENDCHAR
STARTCHAR plusminus
ENCODING 177
SWIDTH 577 0
DWIDTH 5 0
BBX 5 5 0 0
BITMAP
003000
003000
235320
003000
234320
ENDCHAR
STARTCHAR uni00B2
ENCODING 178
SWIDTH 207 0
DWIDTH 2 0
BBX 2 3 0 3
BITMAP
23
12
42
ENDCHAR
STARTCHAR uni00B3
ENCODING 179
SWIDTH 214 0
DWIDTH 2 0
BBX 2 3 0 3
BITMAP
23
14
23
ENDCHAR
STARTCHAR acute
ENCODING 180
SWIDTH 201 0
DWIDTH 2 0
BBX 2 1 0 6
BITMAP
21
ENDCHAR
STARTCHAR uni00B5
ENCODING 181
SWIDTH 335 0
DWIDTH 3 0
BBX 3 7 0 -2
BITMAP
3030
3030
3030
3030
4340
3000
3000
ENDCHAR
STARTCHAR paragraph
ENCODING 182
SWIDTH 471 0
DWIDTH 4 0
BBX 4 7 0 0
BITMAP
2DC3
6FC3
5FC3
0683
0033
0033
0033
ENDCHAR
STARTCHAR periodcentered
ENCODING 183
SWIDTH 181 0
DWIDTH 2 0
BBX 1 1 0 2
BITMAP
30
ENDCHAR
STARTCHAR cedilla
ENCODING 184
SWIDTH 232 0
DWIDTH 2 0
BBX 2 2 0 -2
BITMAP
22
12
ENDCHAR
STARTCHAR uni00B9
ENCODING 185
SWIDTH 176 0
DWIDTH 2 0
BBX 2 3 0 3
BITMAP
40
30
41
ENDCHAR
STARTCHAR ordmasculine
ENCODING 186
SWIDTH 201 0
DWIDTH 2 0
BBX 2 3 0 3
BITMAP
33
33
33
ENDCHAR
STARTCHAR guillemotright
ENCODING 187
SWIDTH 403 0
DWIDTH 4 0
BBX 4 4 0 0
BITMAP
3220
0431
0431
3220
ENDCHAR
STARTCHAR onequarter
ENCODING 188
SWIDTH 527 0
DWIDTH 5 0
BBX 5 7 0 0
BITMAP
000300
220300
022100
243000
012300
030500
032510
ENDCHAR
STARTCHAR onehalf
ENCODING 189
SWIDTH 540 0
DWIDTH 5 0
BBX 5 7 0 0
BITMAP
000300
220300
022100
243000
012320
030210
030510
ENDCHAR
STARTCHAR threequarters
ENCODING 190
SWIDTH 517 0
DWIDTH 5 0
BBX 5 7 0 0
BITMAP
000300
230300
142100
233000
012300
030600
031610
ENDCHAR
STARTCHAR questiondown
ENCODING 191
SWIDTH 300 0
DWIDTH 3 0
BBX 3 7 0 -2
BITMAP
0300
0000
0300
0300
2200
3000
2320
ENDCHAR
STARTCHAR Agrave
ENCODING 192
SWIDTH 414 0
DWIDTH 4 0
BBX 4 9 0 0
BITMAP
0300
0000
0410
0330
0430
1340
4460
4003
3003
ENDCHAR
STARTCHAR Aacute
ENCODING 193
SWIDTH 414 0
DWIDTH 4 0
BBX 4 9 0 0
BITMAP
0020
0000
0410
0330
0430
1340
4460
4003
3003
ENDCHAR
STARTCHAR Acircumflex
ENCODING 194
SWIDTH 414 0
DWIDTH 4 0
BBX 4 8 0 0
BITMAP
0210
0520
0330
0430
1340
4460
4003
3003
ENDCHAR
STARTCHAR Atilde
ENCODING 195
SWIDTH 414 0
DWIDTH 4 0
BBX 4 9 0 0
BITMAP
0120
0000
0410
0330
0430
1340
4460
4003
3003
ENDCHAR
STARTCHAR Adieresis
ENCODING 196
SWIDTH 414 0
DWIDTH 4 0
BBX 4 9 0 0
BITMAP
0220
0000
0410
0330
0430
1340
4460
4003
3003
ENDCHAR
STARTCHAR Aring
ENCODING 197
SWIDTH 414 0
DWIDTH 4 0
BBX 4 9 0 0
BITMAP
0210
0210
0410
0330
0430
1340
4460
4003
3003
ENDCHAR
STARTCHAR AE
ENCODING 198
SWIDTH 545 0
DWIDTH 5 0
BBX 5 7 0 0
BITMAP
005320
007000
034000
053310
165000
403000
303320
ENDCHAR
STARTCHAR Ccedilla
ENCODING 199
SWIDTH 366 0
DWIDTH 3 0
BBX 3 9 0 -2
BITMAP
1430
3000
3000
3000
3000
3000
1430
0220
0120
ENDCHAR
STARTCHAR Egrave
ENCODING 200
SWIDTH 309 0
DWIDTH 3 0
BBX 3 9 0 0
BITMAP
0200
0000
4310
3000
3000
4310
3000
3000
4310
ENDCHAR
STARTCHAR Eacute
ENCODING 201
SWIDTH 309 0
DWIDTH 3 0
BBX 3 9 0 0
BITMAP
0200
0000
4310
3000
3000
4310
3000
3000
4310
ENDCHAR
STARTCHAR Ecircumflex
ENCODING 202
SWIDTH 309 0
DWIDTH 3 0
BBX 3 8 0 0
BITMAP
0200
4510
3000
3000
4310
3000
3000
4310
ENDCHAR
STARTCHAR Edieresis
ENCODING 203
SWIDTH 309 0
DWIDTH 3 0
BBX 3 9 0 0
BITMAP
0500
0000
4310
3000
3000
4310
3000
3000
4310
ENDCHAR
STARTCHAR Igrave
ENCODING 204
SWIDTH 141 0
DWIDTH 1 0
BBX 1 9 0 0
BITMAP
30
00
30
30
30
30
30
30
30
ENDCHAR
STARTCHAR Iacute
ENCODING 205
SWIDTH 141 0
DWIDTH 1 0
BBX 2 9 0 0
BITMAP
21
00
30
30
30
30
30
30
30
ENDCHAR
STARTCHAR Icircumflex
ENCODING 206
SWIDTH 141 0
DWIDTH 1 0
BBX 2 8 0 0
BITMAP
20
41
30
30
30
30
30
30
ENDCHAR
STARTCHAR Idieresis
ENCODING 207
SWIDTH 141 0
DWIDTH 1 0
BBX 2 9 0 0
BITMAP
32
00
30
30
30
30
30
30
30
ENDCHAR
STARTCHAR Eth
ENCODING 208
SWIDTH 396 0
DWIDTH 4 0
BBX 4 7 0 0
BITMAP
4330
3030
3012
5203
3012
3030
4330
ENDCHAR
STARTCHAR Ntilde
ENCODING 209
SWIDTH 422 0
DWIDTH 4 0
BBX 4 9 0 0
BITMAP
0120
0000
5003
3303
3303
3213
3033
3033
3013
ENDCHAR
STARTCHAR Ograve
ENCODING 210
SWIDTH 446 0
DWIDTH 4 0
BBX 4 9 0 0
BITMAP
0200
0000
1441
3003
3003
3003
3003
3003
1431
ENDCHAR
STARTCHAR Oacute
ENCODING 211
SWIDTH 446 0
DWIDTH 4 0
BBX 4 9 0 0
BITMAP
0030
0000
1441
3003
3003
3003
3003
3003
1431
ENDCHAR
STARTCHAR Ocircumflex
ENCODING 212
SWIDTH 446 0
DWIDTH 4 0
BBX 4 8 0 0
BITMAP
0110
1551
3003
3003
3003
3003
3003
1431
ENDCHAR
STARTCHAR Otilde
ENCODING 213
SWIDTH 446 0
DWIDTH 4 0
BBX 4 9 0 0
BITMAP
0120
0000
1441
3003
3003
3003
3003
3003
1431
ENDCHAR
STARTCHAR Odieresis
ENCODING 214
SWIDTH 446 0
DWIDTH 4 0
BBX 4 9 0 0
BITMAP
0220
0000
1441
3003
3003
3003
3003
3003
1431
ENDCHAR
STARTCHAR multiply
ENCODING 215
SWIDTH 445 0
DWIDTH 4 0
BBX 4 4 0 0
BITMAP
1103
0441
0351
2103
ENDCHAR
STARTCHAR Oslash
ENCODING 216
SWIDTH 446 0
DWIDTH 4 0
BBX 4 7 0 0
BITMAP
1443
3033
3033
3123
3303
3303
3431
ENDCHAR
STARTCHAR Ugrave
ENCODING 217
SWIDTH 412 0
DWIDTH 4 0
BBX 4 9 0 0
BITMAP
0300
0000
3003
3003
3003
3003
3003
3003
2341
ENDCHAR
STARTCHAR Uacute
ENCODING 218
SWIDTH 412 0
DWIDTH 4 0
BBX 4 9 0 0
BITMAP
0120
0000
3003
3003
3003
3003
3003
3003
2341
ENDCHAR
STARTCHAR Ucircumflex
ENCODING 219
SWIDTH 412 0
DWIDTH 4 0
BBX 4 8 0 0
BITMAP
0210
3113
3003
3003
3003
3003
3003
2341
ENDCHAR
STARTCHAR Udieresis
ENCODING 220
SWIDTH 412 0
DWIDTH 4 0
BBX 4 9 0 0
BITMAP
0220
0000
3003
3003
3003
3003
3003
3003
2341
ENDCHAR
STARTCHAR Yacute
ENCODING 221
SWIDTH 370 0
DWIDTH 3 0
BBX 4 9 0 0
BITMAP
0210
0000
3021
3030
1330
0500
0300
0300
0300
ENDCHAR
STARTCHAR Thorn
ENCODING 222
SWIDTH 341 0
DWIDTH 3 0
BBX 3 7 0 0
BITMAP
3000
4320
3040
3030
4320
3000
3000
ENDCHAR
STARTCHAR germandbls
ENCODING 223
SWIDTH 327 0
DWIDTH 3 0
BBX 3 7 0 0
BITMAP
2310
3030
3420
3430
3030
3030
3310
ENDCHAR
STARTCHAR agrave
ENCODING 224
SWIDTH 315 0
DWIDTH 3 0
BBX 3 7 0 0
BITMAP
0300
0000
2510
0120
1420
3120
4430
ENDCHAR
STARTCHAR aacute
ENCODING 225
SWIDTH 315 0
DWIDTH 3 0
BBX 3 7 0 0
BITMAP
0300
0000
2510
0120
1420
3120
4430
ENDCHAR
STARTCHAR acircumflex
ENCODING 226
SWIDTH 315 0
DWIDTH 3 0
BBX 3 7 0 0
BITMAP
1500
0000
2510
0120
1420
3120
4430
ENDCHAR
STARTCHAR atilde
ENCODING 227
SWIDTH 315 0
DWIDTH 3 0
BBX 3 7 0 0
BITMAP
0200
0000
2510
0120
1420
3120
4430
ENDCHAR
STARTCHAR adieresis
ENCODING 228
SWIDTH 315 0
DWIDTH 3 0
BBX 3 7 0 0
BITMAP
2300
0000
2510
0120
1420
3120
4430
ENDCHAR
STARTCHAR aring
ENCODING 229
SWIDTH 315 0
DWIDTH 3 0
BBX 3 7 0 0
BITMAP
0300
0300
2510
0120
1420
3120
4430
ENDCHAR
STARTCHAR ae
ENCODING 230
SWIDTH 450 0
DWIDTH 4 0
BBX 4 5 0 0
BITMAP
3433
0143
1453
3030
3443
ENDCHAR
STARTCHAR ccedilla
ENCODING 231
SWIDTH 275 0
DWIDTH 2 0
BBX 3 7 0 -2
BITMAP
2410
3000
3000
3000
2410
0500
0300
ENDCHAR
STARTCHAR egrave
ENCODING 232
SWIDTH 285 0
DWIDTH 3 0
BBX 3 7 0 0
BITMAP
0300
0000
2400
4020
4320
3000
2410
ENDCHAR
STARTCHAR eacute
ENCODING 233
SWIDTH 285 0
DWIDTH 3 0
BBX 3 7 0 0
BITMAP
0300
0000
2400
4020
4320
3000
2410
ENDCHAR
STARTCHAR ecircumflex
ENCODING 234
SWIDTH 285 0
DWIDTH 3 0
BBX 3 7 0 0
BITMAP
1500
0000
2400
4020
4320
3000
2410
ENDCHAR
STARTCHAR edieresis
ENCODING 235
SWIDTH 285 0
DWIDTH 3 0
BBX 3 7 0 0
BITMAP
2300
0000
2400
4020
4320
3000
2410
ENDCHAR
STARTCHAR igrave
ENCODING 236
SWIDTH 141 0
DWIDTH 1 0
BBX 1 7 0 0
BITMAP
30
00
30
30
30
30
30
ENDCHAR
STARTCHAR iacute
ENCODING 237
SWIDTH 141 0
DWIDTH 1 0
BBX 2 7 0 0
BITMAP
21
00
30
30
30
30
30
ENDCHAR
STARTCHAR icircumflex
ENCODING 238
SWIDTH 141 0
DWIDTH 1 0
BBX 2 7 0 0
BITMAP
51
00
30
30
30
30
30
ENDCHAR
STARTCHAR idieresis
ENCODING 239
SWIDTH 141 0
DWIDTH 1 0
BBX 2 7 0 0
BITMAP
33
00
30
30
30
30
30
ENDCHAR
STARTCHAR eth
ENCODING 240
SWIDTH 319 0
DWIDTH 3 0
BBX 3 7 0 0
BITMAP
1310
1400
2330
3020
3030
3030
2410
ENDCHAR
STARTCHAR ntilde
ENCODING 241
SWIDTH 307 0
DWIDTH 3 0
BBX 3 7 0 0
BITMAP
0200
0000
4420
3030
3030
3030
3030
ENDCHAR
STARTCHAR ograve
ENCODING 242
SWIDTH 309 0
DWIDTH 3 0
BBX 3 7 0 0
BITMAP
0300
0000
2410
3030
3030
3030
2410
ENDCHAR
STARTCHAR oacute
ENCODING 243
SWIDTH 309 0
DWIDTH 3 0
BBX 3 7 0 0
BITMAP
0300
0000
2410
3030
3030
3030
2410
ENDCHAR
STARTCHAR ocircumflex
ENCODING 244
SWIDTH 309 0
DWIDTH 3 0
BBX 3 7 0 0
BITMAP
1500
0000
2410
3030
3030
3030
2410
ENDCHAR
STARTCHAR otilde
ENCODING 245
SWIDTH 309 0
DWIDTH 3 0
BBX 3 7 0 0
BITMAP
0200
0000
2410
3030
3030
3030
2410
ENDCHAR
STARTCHAR odieresis
ENCODING 246
SWIDTH 309 0
DWIDTH 3 0
BBX 3 7 0 0
BITMAP
2300
0000
2410
3030
3030
3030
2410
ENDCHAR
STARTCHAR divide
ENCODING 247
SWIDTH 577 0
DWIDTH 5 0
BBX 5 5 0 0
BITMAP
003000
000000
244420
000000
003000
ENDCHAR
STARTCHAR oslash
ENCODING 248
SWIDTH 309 0
DWIDTH 3 0
BBX 3 5 0 0
BITMAP
2430
3330
3330
4230
4410
ENDCHAR
STARTCHAR ugrave
ENCODING 249
SWIDTH 307 0
DWIDTH 3 0
BBX 3 7 0 0
BITMAP
0300
0000
3030
3030
3030
3030
3330
ENDCHAR
STARTCHAR uacute
ENCODING 250
SWIDTH 307 0
DWIDTH 3 0
BBX 3 7 0 0
BITMAP
0300
0000
3030
3030
3030
3030
3330
ENDCHAR
STARTCHAR ucircumflex
ENCODING 251
SWIDTH 307 0
DWIDTH 3 0
BBX 3 7 0 0
BITMAP
1500
0000
3030
3030
3030
3030
3330
ENDCHAR
STARTCHAR udieresis
ENCODING 252
SWIDTH 307 0
DWIDTH 3 0
BBX 3 7 0 0
BITMAP
2300
0000
3030
3030
3030
3030
3330
ENDCHAR
STARTCHAR yacute
ENCODING 253
SWIDTH 285 0
DWIDTH 3 0
BBX 3 9 0 -2
BITMAP
0300
0000
3030
3110
3300
2400
0500
0300
4100
ENDCHAR
STARTCHAR thorn
ENCODING 254
SWIDTH 299 0
DWIDTH 3 0
BBX 3 9 0 -2
BITMAP
3000
3000
5410
3030
3030
3030
4400
3000
3000
ENDCHAR
STARTCHAR ydieresis
ENCODING 255
SWIDTH 285 0
DWIDTH 3 0
BBX 3 9 0 -2
BITMAP
3300
0000
3030
3110
3300
2400
0500
0300
4100
ENDCHAR
STARTCHAR dotlessi
ENCODING 305
SWIDTH 141 0
DWIDTH 1 0
BBX 1 5 0 0
BITMAP
30
30
30
30
30
ENDCHAR
STARTCHAR OE
ENCODING 338
SWIDTH 505 0
DWIDTH 5 0
BBX 4 7 0 0
BITMAP
1463
3030
3030
3053
3030
3030
1463
ENDCHAR
STARTCHAR oe
ENCODING 339
SWIDTH 492 0
DWIDTH 4 0
BBX 5 5 0 0
BITMAP
233400
305210
305310
305000
243400
ENDCHAR
STARTCHAR Wcircumflex
ENCODING 372
SWIDTH 534 0
DWIDTH 5 0
BBX 5 8 0 0
BITMAP
002000
312030
300030
305030
306030
305120
323310
330500
ENDCHAR
STARTCHAR wcircumflex
ENCODING 373
SWIDTH 396 0
DWIDTH 4 0
BBX 4 7 0 0
BITMAP
0420
0000
3003
3303
3422
3531
4260
ENDCHAR
STARTCHAR Ycircumflex
ENCODING 374
SWIDTH 370 0
DWIDTH 3 0
BBX 4 8 0 0
BITMAP
0200
3231
3030
1330
0500
0300
0300
0300
ENDCHAR
STARTCHAR ycircumflex
ENCODING 375
SWIDTH 285 0
DWIDTH 3 0
BBX 3 9 0 -2
BITMAP
2500
0000
3030
3110
3300
2400
0500
0300
4100
ENDCHAR
STARTCHAR Ydieresis
ENCODING 376
SWIDTH 370 0
DWIDTH 3 0
BBX 4 9 0 0
BITMAP
0320
0000
3021
3030
1330
0500
0300
0300
0300
ENDCHAR
STARTCHAR uni0237
ENCODING 567
SWIDTH 141 0
DWIDTH 1 0
BBX 2 7 -1 -2
BITMAP
03
03
03
03
03
03
23
ENDCHAR
STARTCHAR circumflex
ENCODING 710
SWIDTH 280 0
DWIDTH 3 0
BBX 2 1 0 6
BITMAP
25
ENDCHAR
STARTCHAR ring
ENCODING 730
SWIDTH 238 0
DWIDTH 2 0
BBX 2 2 0 5
BITMAP
22
22
ENDCHAR
STARTCHAR tilde
ENCODING 732
SWIDTH 301 0
DWIDTH 3 0
BBX 1 1 1 6
BITMAP
20
ENDCHAR
STARTCHAR gravecomb
ENCODING 768
SWIDTH 0 0
DWIDTH 0 0
BBX 2 1 0 6
BITMAP
21
ENDCHAR
STARTCHAR acutecomb
ENCODING 769
SWIDTH 0 0
DWIDTH 0 0
BBX 2 1 0 6
BITMAP
21
ENDCHAR
STARTCHAR uni0302
ENCODING 770
SWIDTH 0 0
DWIDTH 0 0
BBX 2 1 0 6
BITMAP
25
ENDCHAR
STARTCHAR tildecomb
ENCODING 771
SWIDTH 0 0
DWIDTH 0 0
BBX 1 1 1 6
BITMAP
20
ENDCHAR
STARTCHAR uni0307
ENCODING 775
SWIDTH 0 0
DWIDTH 0 0
BBX 1 1 0 6
BITMAP
30
ENDCHAR
STARTCHAR uni0308
ENCODING 776
SWIDTH 0 0
DWIDTH 0 0
BBX 2 1 0 6
BITMAP
33
ENDCHAR
STARTCHAR uni030A
ENCODING 778
SWIDTH 0 0
DWIDTH 0 0
BBX 2 2 0 5
BITMAP
22
22
ENDCHAR
STARTCHAR uni0327
ENCODING 807
SWIDTH 0 0
DWIDTH 0 0
BBX 2 2 0 -2
BITMAP
22
12
ENDCHAR
STARTCHAR Wgrave
ENCODING 7808
SWIDTH 534 0
DWIDTH 5 0
BBX 5 9 0 0
BITMAP
002000
000000
300030
300030
305030
306030
305120
323310
330500
ENDCHAR
STARTCHAR wgrave
ENCODING 7809
SWIDTH 396 0
DWIDTH 4 0
BBX 4 7 0 0
BITMAP
0300
0000
3003
3303
3422
3531
4260
ENDCHAR
STARTCHAR Wacute
ENCODING 7810
SWIDTH 534 0
DWIDTH 5 0
BBX 5 9 0 0
BITMAP
003000
000000
300030
300030
305030
306030
305120
323310
330500
ENDCHAR
STARTCHAR wacute
ENCODING 7811
SWIDTH 396 0
DWIDTH 4 0
BBX 4 7 0 0
BITMAP
0210
0000
3003
3303
3422
3531
4260
ENDCHAR
STARTCHAR Wdieresis
ENCODING 7812
SWIDTH 534 0
DWIDTH 5 0
BBX 5 9 0 0
BITMAP
014000
000000
300030
300030
305030
306030
305120
323310
330500
ENDCHAR
STARTCHAR wdieresis
ENCODING 7813
SWIDTH 396 0
DWIDTH 4 0
BBX 4 7 0 0
BITMAP
0330
0000
3003
3303
3422
3531
4260
ENDCHAR
STARTCHAR uni1E9E
ENCODING 7838
SWIDTH 375 0
DWIDTH 3 0
BBX 3 7 0 0
BITMAP
2330
3030
3340
3350
3030
3030
3320
ENDCHAR
STARTCHAR Ygrave
ENCODING 7922
SWIDTH 370 0
DWIDTH 3 0
BBX 4 9 0 0
BITMAP
0300
0000
3021
3030
1330
0500
0300
0300
0300
ENDCHAR
STARTCHAR ygrave
ENCODING 7923
SWIDTH 285 0
DWIDTH 3 0
BBX 3 9 0 -2
BITMAP
1200
0000
3030
3110
3300
2400
0500
0300
4100
ENDCHAR
STARTCHAR endash
ENCODING 8211
SWIDTH 425 0
DWIDTH 4 0
BBX 4 1 0 2
BITMAP
2441
ENDCHAR
STARTCHAR emdash
ENCODING 8212
SWIDTH 770 0
DWIDTH 7 0
BBX 7 1 0 2
BITMAP
24444420
ENDCHAR
STARTCHAR quoteleft
ENCODING 8216
SWIDTH 145 0
DWIDTH 1 0
BBX 1 2 0 5
BITMAP
30
30
ENDCHAR
STARTCHAR quoteright
ENCODING 8217
SWIDTH 145 0
DWIDTH 1 0
BBX 1 2 0 4
BITMAP
30
30
ENDCHAR
STARTCHAR quotesinglbase
ENCODING 8218
SWIDTH 145 0
DWIDTH 1 0
BBX 1 2 0 -2
BITMAP
30
30
ENDCHAR
STARTCHAR quotedblleft
ENCODING 8220
SWIDTH 219 0
DWIDTH 2 0
BBX 2 2 0 5
BITMAP
33
33
ENDCHAR
STARTCHAR quotedblright
ENCODING 8221
SWIDTH 219 0
DWIDTH 2 0
BBX 2 2 0 4
BITMAP
33
33
ENDCHAR
STARTCHAR quotedblbase
ENCODING 8222
SWIDTH 219 0
DWIDTH 2 0
BBX 2 2 0 -2
BITMAP
33
43
ENDCHAR
STARTCHAR bullet
ENCODING 8226
SWIDTH 355 0
DWIDTH 3 0
BBX 3 3 0 2
BITMAP
3E50
6F90
0610
ENDCHAR
STARTCHAR ellipsis
ENCODING 8230
SWIDTH 651 0
DWIDTH 6 0
BBX 6 1 0 0
BITMAP
302012
ENDCHAR
STARTCHAR guilsinglleft
ENCODING 8249
SWIDTH 263 0
DWIDTH 2 0
BBX 2 4 0 1
BITMAP
04
31
31
04
ENDCHAR
STARTCHAR guilsinglright
ENCODING 8250
SWIDTH 263 0
DWIDTH 2 0
BBX 2 4 0 0
BITMAP
31
04
04
31
ENDCHAR
STARTCHAR fraction
ENCODING 8260
SWIDTH 152 0
DWIDTH 1 0
BBX 4 7 -1 0
BITMAP
0021
0030
0120
0300
0300
3000
3000
ENDCHAR
STARTCHAR uni2074
ENCODING 8308
SWIDTH 247 0
DWIDTH 2 0
BBX 2 3 0 3
BITMAP
12
32
34
ENDCHAR
STARTCHAR Euro
ENCODING 8364
SWIDTH 391 0
DWIDTH 4 0
BBX 4 7 0 0
BITMAP
0430
3000
5300
6400
3000
2100
0331
ENDCHAR
STARTCHAR trademark
ENCODING 8482
SWIDTH 506 0
DWIDTH 5 0
BBX 5 4 0 2
BITMAP
CB7620
215620
214720
101010
ENDCHAR
STARTCHAR minus
ENCODING 8722
SWIDTH 557 0
DWIDTH 5 0
BBX 5 1 0 2
BITMAP
8DDD80
ENDCHAR
STARTCHAR uni2215
ENCODING 8725
SWIDTH 259 0
DWIDTH 2 0
BBX 3 7 0 0
BITMAP
0010
0210
0300
0300
2100
3000
3000
ENDCHAR
STARTCHAR .notdef
ENCODING -1
SWIDTH 500 0
DWIDTH 5 0
BBX 5 9 0 -2
BITMAP
677900
700610
700610
700610
700610
700610
700610
700610
677800
ENDCHAR
STARTCHAR NULL
ENCODING -1
SWIDTH 600 0
DWIDTH 5 0
BBX 1 1 0 0
BITMAP
00
ENDCHAR
STARTCHAR acutecomb.case
ENCODING -1
SWIDTH 0 0
DWIDTH 0 0
BBX 2 1 0 8
BITMAP
21
ENDCHAR
STARTCHAR uni0302.case
ENCODING -1
SWIDTH 0 0
DWIDTH 0 0
BBX 2 2 0 6
BITMAP
02
11
ENDCHAR
STARTCHAR uni0308.case
ENCODING -1
SWIDTH 0 0
DWIDTH 0 0
BBX 2 1 0 8
BITMAP
22
ENDCHAR
STARTCHAR uni0307.case
ENCODING -1
SWIDTH 0 0
DWIDTH 0 0
BBX 1 1 0 8
BITMAP
20
ENDCHAR
STARTCHAR gravecomb.case
ENCODING -1
SWIDTH 0 0
DWIDTH 0 0
BBX 2 1 0 8
BITMAP
21
ENDCHAR
STARTCHAR uni030A.case
ENCODING -1
SWIDTH 0 0
DWIDTH 0 0
BBX 2 2 0 7
BITMAP
22
22
ENDCHAR
STARTCHAR tildecomb.case
ENCODING -1
SWIDTH 0 0
DWIDTH 0 0
BBX 1 1 1 8
BITMAP
20
ENDCHAR
ENDFONT
